# xmcd
#
# Track frame offsets:
#	150
#	14254
#	30953
#	49125
#	67942
#	84702
#	101652
#	116892
#	131901
#	151021
#	166291
#	186299
#	203700
#	218013
#	235837
#
# Disc length: 3324 seconds
#
# Revision: 1
# Processed by: cddbd v1.5.1PL0 Copyright (c) Steve Scherf et al.
# Submitted via: audiograbber 1.82.02
#
DISCID=c40cfa0f
DTITLE=Various Artist - Nashville Sound Vol 4003
DYEAR=1900
DGENRE=Karaoke
TTITLE0=Joe Diffie - Third rock from the sun
TTITLE1=George Strait - Gone as a girl can get
TTITLE2=Lorrie Morgan - Heart over mind
TTITLE3=George Strait - I'd like to have that one back
TTITLE4=Tanya Tucker - If it don't come easy
TTITLE5=Kathy Mattea - Nobody's gonna rain on our parade
TTITLE6=Alan Jackson - Chasin' that neon rainbow
TTITLE7=Little Texas - Stop on a dime
TTITLE8=Martina McBride - Where I used to have a heart
TTITLE9=Tracy Byrd - Watermelon Crawl
TTITLE10=Suzy Boggus - Souvenirs
TTITLE11=Confederate Railroad - Eagle over angel
TTITLE12=Dwight Yoakam - Pocket of a clown
TTITLE13=Tanya Tucker - My arms stay open all night
TTITLE14=Tim Mcgraw - Down on the farm
EXTD=
EXTT0=
EXTT1=
EXTT2=
EXTT3=
EXTT4=
EXTT5=
EXTT6=
EXTT7=
EXTT8=
EXTT9=
EXTT10=
EXTT11=
EXTT12=
EXTT13=
EXTT14=
PLAYORDER=
